<svg width="141" height="28" viewBox="0 0 141 28" fill="none" xmlns="http://www.w3.org/2000/svg">
<path d="M12.8016 9.216C12.8976 8.736 12.9456 8.244 12.9456 7.74C12.9456 5.412 11.8056 4.248 9.52563 4.248C8.49363 4.248 7.61763 4.464 6.89763 4.896C6.22563 5.688 5.88963 6.636 5.88963 7.74C5.88963 8.46 6.20163 9.084 6.82563 9.612C7.44963 10.116 8.21763 10.512 9.12963 10.8C10.0656 11.088 11.0736 11.448 12.1536 11.88C13.2336 12.312 14.2296 12.78 15.1416 13.284C16.0776 13.764 16.8576 14.496 17.4816 15.48C18.1056 16.44 18.4176 17.58 18.4176 18.9C18.4176 21.42 17.4456 23.472 15.5016 25.056C13.5816 26.64 11.2656 27.432 8.55363 27.432C6.36963 27.432 4.50963 26.892 2.97363 25.812C1.46163 24.708 0.705625 23.172 0.705625 21.204C0.705625 20.196 1.00563 19.356 1.60563 18.684C2.22963 17.988 2.96163 17.64 3.80163 17.64C4.66563 17.64 5.30163 17.748 5.70963 17.964C5.51763 18.684 5.42163 19.332 5.42163 19.908C5.42163 21.204 5.78163 22.236 6.50163 23.004C7.24563 23.748 8.26563 24.12 9.56163 24.12C10.8576 24.12 11.9016 23.784 12.6936 23.112C13.4856 22.44 13.8816 21.552 13.8816 20.448C13.8816 19.32 13.4376 18.396 12.5496 17.676C11.6856 16.956 10.6296 16.38 9.38163 15.948C8.13363 15.516 6.88563 15.06 5.63763 14.58C4.38963 14.1 3.32163 13.392 2.43363 12.456C1.56963 11.496 1.13763 10.296 1.13763 8.856C1.13763 6.6 2.10963 4.728 4.05363 3.24C6.02163 1.752 8.24163 1.008 10.7136 1.008C12.5376 1.008 14.1096 1.38 15.4296 2.124C16.7736 2.844 17.4456 3.948 17.4456 5.436C17.4456 6.516 17.0976 7.44 16.4016 8.208C15.7056 8.952 14.8296 9.324 13.7736 9.324C13.4856 9.324 13.1616 9.288 12.8016 9.216ZM21.7485 23.328L22.1085 15.84C22.1085 13.512 21.7725 11.304 21.1005 9.216C21.7725 8.928 22.6005 8.784 23.5845 8.784C25.5045 8.784 26.4645 9.852 26.4645 11.988C26.4645 13.188 26.3325 14.88 26.0685 17.064C25.8045 19.224 25.6725 20.796 25.6725 21.78C25.6725 22.98 26.2125 23.58 27.2925 23.58C27.9405 23.58 28.6965 23.04 29.5605 21.96C30.4485 20.856 31.2045 19.632 31.8285 18.288C32.4765 16.92 32.8605 15.804 32.9805 14.94C32.8365 12.3 32.6325 10.392 32.3685 9.216C33.1365 8.928 33.9165 8.784 34.7085 8.784C35.5245 8.784 36.1965 9.036 36.7245 9.54C37.2765 10.044 37.5525 10.668 37.5525 11.412C37.5525 12.156 37.4445 13.392 37.2285 15.12C37.0125 16.848 36.9045 18.66 36.9045 20.556C36.9045 22.428 37.1205 24.432 37.5525 26.568C36.6165 26.856 35.7765 27 35.0325 27C33.5445 27 32.8005 26.016 32.8005 24.048C32.8005 23.184 32.8965 21.984 33.0885 20.448C32.1285 22.488 30.9525 24.132 29.5605 25.38C28.1925 26.604 26.8005 27.216 25.3845 27.216C22.9605 27.216 21.7485 25.92 21.7485 23.328ZM57.9918 12.456L57.6318 20.376C57.6318 22.56 57.9678 24.696 58.6398 26.784C57.9678 27.072 57.1998 27.216 56.3358 27.216C54.2958 27.216 53.2758 26.076 53.2758 23.796C53.2758 22.764 53.4078 21.036 53.6718 18.612C53.9358 16.164 54.0678 14.628 54.0678 14.004C54.0678 12.804 53.5278 12.204 52.4478 12.204C51.6558 12.204 50.7558 12.78 49.7478 13.932C48.7638 15.06 47.9118 16.332 47.1918 17.748C46.4958 19.14 46.0878 20.292 45.9678 21.204C46.0638 23.076 46.3038 24.864 46.6878 26.568C45.9198 26.856 45.1158 27 44.2758 27C43.4598 27 42.7878 26.808 42.2598 26.424C41.7558 26.016 41.5038 25.464 41.5038 24.768C41.5038 24.048 41.6118 22.776 41.8278 20.952C42.0438 19.104 42.1518 17.28 42.1518 15.48C42.1518 13.656 41.8758 11.568 41.3238 9.216C42.0918 8.928 42.9078 8.784 43.7718 8.784C44.6358 8.784 45.3318 9.036 45.8598 9.54C46.4118 10.044 46.6878 10.668 46.6878 11.412C46.6878 12.156 46.5918 13.344 46.3998 14.976C47.3118 13.272 48.4998 11.784 49.9638 10.512C51.4278 9.216 52.8918 8.568 54.3558 8.568C56.7798 8.568 57.9918 9.864 57.9918 12.456ZM62.4535 9.108C63.2215 8.892 63.9895 8.784 64.7575 8.784C65.5495 8.784 66.2215 9.024 66.7735 9.504C67.3255 9.984 67.6015 10.608 67.6015 11.376C67.6015 12.12 67.4695 13.428 67.2055 15.3C66.9655 17.148 66.8455 18.588 66.8455 19.62C66.8455 22.308 67.0975 24.624 67.6015 26.568C66.8575 26.856 66.0535 27 65.1895 27C64.3255 27 63.6415 26.808 63.1375 26.424C62.6335 26.016 62.3815 25.44 62.3815 24.696C62.3815 23.928 62.5255 22.68 62.8135 20.952C63.1015 19.224 63.2455 17.796 63.2455 16.668C63.2455 13.668 62.9815 11.148 62.4535 9.108ZM62.9215 0.971998C63.7615 0.587999 64.5895 0.395999 65.4055 0.395999C66.2215 0.395999 66.8215 0.611999 67.2055 1.044C67.6135 1.452 67.8175 2.064 67.8175 2.88C67.8175 3.696 67.5415 4.416 66.9895 5.04C66.4615 5.664 65.7655 5.976 64.9015 5.976C63.1255 5.976 62.2375 5.052 62.2375 3.204C62.2375 2.388 62.4655 1.644 62.9215 0.971998ZM71.8813 0.431999C72.6493 0.143998 73.4413 -2.14577e-06 74.2573 -2.14577e-06C75.0733 -2.14577e-06 75.7453 0.275998 76.2733 0.827998C76.8253 1.356 77.1013 2.088 77.1013 3.024C77.1013 3.936 76.9693 5.784 76.7053 8.568C76.4653 11.328 76.3453 13.5 76.3453 15.084C76.3453 18.996 76.6213 22.824 77.1733 26.568C76.4053 26.856 75.5893 27 74.7253 27C72.8773 27 71.9533 26.1 71.9533 24.3C71.9533 23.436 72.0853 21.744 72.3493 19.224C72.6133 16.68 72.7453 14.64 72.7453 13.104C72.7453 7.992 72.4573 3.768 71.8813 0.431999Z" fill="#969E32"/>
<path d="M102.977 9.216C103.073 8.736 103.121 8.244 103.121 7.74C103.121 5.412 101.981 4.248 99.7014 4.248C98.6694 4.248 97.7934 4.464 97.0734 4.896C96.4014 5.688 96.0654 6.636 96.0654 7.74C96.0654 8.46 96.3774 9.084 97.0014 9.612C97.6254 10.116 98.3934 10.512 99.3054 10.8C100.241 11.088 101.249 11.448 102.329 11.88C103.409 12.312 104.405 12.78 105.317 13.284C106.253 13.764 107.033 14.496 107.657 15.48C108.281 16.44 108.593 17.58 108.593 18.9C108.593 21.42 107.621 23.472 105.677 25.056C103.757 26.64 101.441 27.432 98.7294 27.432C96.5454 27.432 94.6854 26.892 93.1494 25.812C91.6374 24.708 90.8814 23.172 90.8814 21.204C90.8814 20.196 91.1814 19.356 91.7814 18.684C92.4054 17.988 93.1374 17.64 93.9774 17.64C94.8414 17.64 95.4774 17.748 95.8854 17.964C95.6934 18.684 95.5974 19.332 95.5974 19.908C95.5974 21.204 95.9574 22.236 96.6774 23.004C97.4214 23.748 98.4414 24.12 99.7374 24.12C101.033 24.12 102.077 23.784 102.869 23.112C103.661 22.44 104.057 21.552 104.057 20.448C104.057 19.32 103.613 18.396 102.725 17.676C101.861 16.956 100.805 16.38 99.5574 15.948C98.3094 15.516 97.0614 15.06 95.8134 14.58C94.5654 14.1 93.4974 13.392 92.6094 12.456C91.7454 11.496 91.3134 10.296 91.3134 8.856C91.3134 6.6 92.2854 4.728 94.2294 3.24C96.1974 1.752 98.4174 1.008 100.889 1.008C102.713 1.008 104.285 1.38 105.605 2.124C106.949 2.844 107.621 3.948 107.621 5.436C107.621 6.516 107.273 7.44 106.577 8.208C105.881 8.952 105.005 9.324 103.949 9.324C103.661 9.324 103.337 9.288 102.977 9.216ZM119.996 3.312C120.572 2.064 121.628 1.44 123.164 1.44C126.02 1.44 128.72 5.544 131.264 13.752C132.752 11.52 134.024 9.252 135.08 6.948C136.16 4.62 136.7 2.712 136.7 1.224C139.244 1.224 140.516 1.896 140.516 3.24C140.516 4.176 139.94 5.568 138.788 7.416C137.636 9.264 136.388 11.172 135.044 13.14C133.724 15.084 132.944 16.512 132.704 17.424C132.632 18.36 132.596 19.512 132.596 20.88C132.596 22.248 132.764 24.144 133.1 26.568C132.332 26.856 131.516 27 130.652 27C129.788 27 129.032 26.724 128.384 26.172C127.76 25.62 127.448 24.924 127.448 24.084C127.448 23.22 127.592 21.036 127.88 17.532C126.032 10.332 123.404 5.592 119.996 3.312Z" fill="#BD4949"/>
</svg>
